<mxfile host="app.diagrams.net" modified="2024-02-27T19:23:46.349Z" agent="Mozilla/5.0 (Windows NT 10.0; Win64; x64) AppleWebKit/537.36 (KHTML, like Gecko) Chrome/122.0.0.0 Safari/537.36" etag="hEBFH7hokllvfwBSJ5Hf" version="23.1.7" type="device">
  <diagram name="PÃ¡gina-1" id="HuHcjPXkye49mXM4HaMT">
    <mxGraphModel dx="2140" dy="663" grid="1" gridSize="10" guides="1" tooltips="1" connect="1" arrows="1" fold="1" page="1" pageScale="1" pageWidth="827" pageHeight="1169" math="0" shadow="0">
      <root>
        <mxCell id="0" />
        <mxCell id="1" parent="0" />
        <mxCell id="irAptTE_zML3NEZzWrhs-2" style="edgeStyle=orthogonalEdgeStyle;rounded=0;orthogonalLoop=1;jettySize=auto;html=1;entryX=0.5;entryY=0;entryDx=0;entryDy=0;exitX=1;exitY=0.5;exitDx=0;exitDy=0;" edge="1" parent="1" source="irAptTE_zML3NEZzWrhs-1" target="irAptTE_zML3NEZzWrhs-3">
          <mxGeometry relative="1" as="geometry">
            <mxPoint x="240" y="280" as="targetPoint" />
          </mxGeometry>
        </mxCell>
        <mxCell id="irAptTE_zML3NEZzWrhs-1" value="" style="image;aspect=fixed;perimeter=ellipsePerimeter;html=1;align=center;shadow=0;dashed=0;spacingTop=3;image=img/lib/active_directory/internet_cloud.svg;" vertex="1" parent="1">
          <mxGeometry x="60" y="106.3" width="120" height="75.6" as="geometry" />
        </mxCell>
        <mxCell id="irAptTE_zML3NEZzWrhs-5" style="edgeStyle=orthogonalEdgeStyle;rounded=0;orthogonalLoop=1;jettySize=auto;html=1;" edge="1" parent="1" source="irAptTE_zML3NEZzWrhs-3" target="irAptTE_zML3NEZzWrhs-4">
          <mxGeometry relative="1" as="geometry" />
        </mxCell>
        <mxCell id="irAptTE_zML3NEZzWrhs-3" value="" style="image;html=1;image=img/lib/clip_art/networking/Wireless_Router_128x128.png" vertex="1" parent="1">
          <mxGeometry x="210" y="190" width="80" height="80" as="geometry" />
        </mxCell>
        <mxCell id="irAptTE_zML3NEZzWrhs-7" style="edgeStyle=orthogonalEdgeStyle;rounded=0;orthogonalLoop=1;jettySize=auto;html=1;" edge="1" parent="1" source="irAptTE_zML3NEZzWrhs-4" target="irAptTE_zML3NEZzWrhs-6">
          <mxGeometry relative="1" as="geometry" />
        </mxCell>
        <mxCell id="irAptTE_zML3NEZzWrhs-4" value="" style="image;html=1;image=img/lib/clip_art/computers/Server_Rack_128x128.png" vertex="1" parent="1">
          <mxGeometry x="60" y="290" width="80" height="80" as="geometry" />
        </mxCell>
        <mxCell id="irAptTE_zML3NEZzWrhs-50" style="edgeStyle=orthogonalEdgeStyle;rounded=0;orthogonalLoop=1;jettySize=auto;html=1;exitX=0;exitY=0.5;exitDx=0;exitDy=0;entryX=0.5;entryY=0;entryDx=0;entryDy=0;" edge="1" parent="1" source="irAptTE_zML3NEZzWrhs-6" target="irAptTE_zML3NEZzWrhs-49">
          <mxGeometry relative="1" as="geometry" />
        </mxCell>
        <mxCell id="irAptTE_zML3NEZzWrhs-61" style="edgeStyle=orthogonalEdgeStyle;rounded=0;orthogonalLoop=1;jettySize=auto;html=1;exitX=0.5;exitY=1;exitDx=0;exitDy=0;entryX=0.5;entryY=0;entryDx=0;entryDy=0;" edge="1" parent="1" source="irAptTE_zML3NEZzWrhs-91" target="irAptTE_zML3NEZzWrhs-27">
          <mxGeometry relative="1" as="geometry" />
        </mxCell>
        <mxCell id="irAptTE_zML3NEZzWrhs-73" style="edgeStyle=orthogonalEdgeStyle;rounded=0;orthogonalLoop=1;jettySize=auto;html=1;exitX=1;exitY=0.5;exitDx=0;exitDy=0;entryX=0;entryY=0.5;entryDx=0;entryDy=0;" edge="1" parent="1" source="irAptTE_zML3NEZzWrhs-6" target="irAptTE_zML3NEZzWrhs-72">
          <mxGeometry relative="1" as="geometry" />
        </mxCell>
        <mxCell id="irAptTE_zML3NEZzWrhs-6" value="" style="image;html=1;image=img/lib/clip_art/networking/Switch_128x128.png" vertex="1" parent="1">
          <mxGeometry x="510" y="295" width="80" height="70" as="geometry" />
        </mxCell>
        <mxCell id="irAptTE_zML3NEZzWrhs-8" value="" style="image;html=1;image=img/lib/clip_art/computers/Printer_128x128.png" vertex="1" parent="1">
          <mxGeometry x="-80" y="430" width="80" height="80" as="geometry" />
        </mxCell>
        <mxCell id="irAptTE_zML3NEZzWrhs-9" value="" style="image;html=1;image=img/lib/clip_art/computers/Printer_128x128.png" vertex="1" parent="1">
          <mxGeometry x="30" y="430" width="80" height="80" as="geometry" />
        </mxCell>
        <mxCell id="irAptTE_zML3NEZzWrhs-10" value="" style="image;html=1;image=img/lib/clip_art/computers/Printer_128x128.png" vertex="1" parent="1">
          <mxGeometry x="140" y="430" width="80" height="80" as="geometry" />
        </mxCell>
        <mxCell id="irAptTE_zML3NEZzWrhs-14" value="" style="image;points=[];aspect=fixed;html=1;align=center;shadow=0;dashed=0;image=img/lib/allied_telesis/computer_and_terminals/Personal_Computer.svg;" vertex="1" parent="1">
          <mxGeometry x="160" y="560" width="42.8" height="58.01" as="geometry" />
        </mxCell>
        <mxCell id="irAptTE_zML3NEZzWrhs-15" value="" style="image;points=[];aspect=fixed;html=1;align=center;shadow=0;dashed=0;image=img/lib/allied_telesis/computer_and_terminals/Personal_Computer.svg;" vertex="1" parent="1">
          <mxGeometry x="94.4" y="560" width="45.6" height="61.800000000000004" as="geometry" />
        </mxCell>
        <mxCell id="irAptTE_zML3NEZzWrhs-16" value="" style="image;points=[];aspect=fixed;html=1;align=center;shadow=0;dashed=0;image=img/lib/allied_telesis/computer_and_terminals/Personal_Computer.svg;" vertex="1" parent="1">
          <mxGeometry x="20" y="560" width="45.6" height="61.800000000000004" as="geometry" />
        </mxCell>
        <mxCell id="irAptTE_zML3NEZzWrhs-17" value="" style="image;points=[];aspect=fixed;html=1;align=center;shadow=0;dashed=0;image=img/lib/allied_telesis/computer_and_terminals/Personal_Computer.svg;" vertex="1" parent="1">
          <mxGeometry x="-46" y="558.1" width="45.6" height="61.800000000000004" as="geometry" />
        </mxCell>
        <mxCell id="irAptTE_zML3NEZzWrhs-65" style="edgeStyle=orthogonalEdgeStyle;rounded=0;orthogonalLoop=1;jettySize=auto;html=1;exitX=1;exitY=0.5;exitDx=0;exitDy=0;" edge="1" parent="1" source="irAptTE_zML3NEZzWrhs-27" target="irAptTE_zML3NEZzWrhs-39">
          <mxGeometry relative="1" as="geometry" />
        </mxCell>
        <mxCell id="irAptTE_zML3NEZzWrhs-69" style="edgeStyle=orthogonalEdgeStyle;rounded=0;orthogonalLoop=1;jettySize=auto;html=1;exitX=0.75;exitY=1;exitDx=0;exitDy=0;" edge="1" parent="1" source="irAptTE_zML3NEZzWrhs-27" target="irAptTE_zML3NEZzWrhs-33">
          <mxGeometry relative="1" as="geometry" />
        </mxCell>
        <mxCell id="irAptTE_zML3NEZzWrhs-27" value="" style="image;html=1;image=img/lib/clip_art/networking/Print_Server_128x128.png" vertex="1" parent="1">
          <mxGeometry x="520" y="600" width="110" height="120" as="geometry" />
        </mxCell>
        <mxCell id="irAptTE_zML3NEZzWrhs-33" value="" style="image;html=1;image=img/lib/clip_art/computers/Printer_Commercial_128x128.png" vertex="1" parent="1">
          <mxGeometry x="640" y="770" width="80" height="80" as="geometry" />
        </mxCell>
        <mxCell id="irAptTE_zML3NEZzWrhs-34" value="" style="image;html=1;image=img/lib/clip_art/computers/Printer_Commercial_128x128.png" vertex="1" parent="1">
          <mxGeometry x="730" y="770" width="80" height="80" as="geometry" />
        </mxCell>
        <mxCell id="irAptTE_zML3NEZzWrhs-38" value="" style="image;points=[];aspect=fixed;html=1;align=center;shadow=0;dashed=0;image=img/lib/allied_telesis/computer_and_terminals/Personal_Computer.svg;" vertex="1" parent="1">
          <mxGeometry x="640" y="520" width="45.6" height="61.800000000000004" as="geometry" />
        </mxCell>
        <mxCell id="irAptTE_zML3NEZzWrhs-39" value="" style="image;points=[];aspect=fixed;html=1;align=center;shadow=0;dashed=0;image=img/lib/allied_telesis/computer_and_terminals/Personal_Computer.svg;" vertex="1" parent="1">
          <mxGeometry x="880" y="523" width="45.6" height="61.800000000000004" as="geometry" />
        </mxCell>
        <mxCell id="irAptTE_zML3NEZzWrhs-40" value="" style="image;points=[];aspect=fixed;html=1;align=center;shadow=0;dashed=0;image=img/lib/allied_telesis/computer_and_terminals/Personal_Computer.svg;" vertex="1" parent="1">
          <mxGeometry x="720" y="520" width="45.6" height="61.800000000000004" as="geometry" />
        </mxCell>
        <mxCell id="irAptTE_zML3NEZzWrhs-41" value="" style="image;points=[];aspect=fixed;html=1;align=center;shadow=0;dashed=0;image=img/lib/allied_telesis/computer_and_terminals/Personal_Computer.svg;" vertex="1" parent="1">
          <mxGeometry x="800" y="523" width="45.6" height="61.800000000000004" as="geometry" />
        </mxCell>
        <mxCell id="irAptTE_zML3NEZzWrhs-51" style="edgeStyle=orthogonalEdgeStyle;rounded=0;orthogonalLoop=1;jettySize=auto;html=1;exitX=0.5;exitY=1;exitDx=0;exitDy=0;" edge="1" parent="1" source="irAptTE_zML3NEZzWrhs-49" target="irAptTE_zML3NEZzWrhs-14">
          <mxGeometry relative="1" as="geometry" />
        </mxCell>
        <mxCell id="irAptTE_zML3NEZzWrhs-58" style="edgeStyle=orthogonalEdgeStyle;rounded=0;orthogonalLoop=1;jettySize=auto;html=1;exitX=0.5;exitY=1;exitDx=0;exitDy=0;entryX=0.5;entryY=1;entryDx=0;entryDy=0;" edge="1" parent="1" source="irAptTE_zML3NEZzWrhs-49" target="irAptTE_zML3NEZzWrhs-10">
          <mxGeometry relative="1" as="geometry" />
        </mxCell>
        <mxCell id="irAptTE_zML3NEZzWrhs-59" style="edgeStyle=orthogonalEdgeStyle;rounded=0;orthogonalLoop=1;jettySize=auto;html=1;exitX=0.5;exitY=1;exitDx=0;exitDy=0;entryX=0.5;entryY=1;entryDx=0;entryDy=0;" edge="1" parent="1" source="irAptTE_zML3NEZzWrhs-49" target="irAptTE_zML3NEZzWrhs-9">
          <mxGeometry relative="1" as="geometry" />
        </mxCell>
        <mxCell id="irAptTE_zML3NEZzWrhs-60" style="edgeStyle=orthogonalEdgeStyle;rounded=0;orthogonalLoop=1;jettySize=auto;html=1;exitX=0.5;exitY=1;exitDx=0;exitDy=0;entryX=0.5;entryY=1;entryDx=0;entryDy=0;" edge="1" parent="1" source="irAptTE_zML3NEZzWrhs-49" target="irAptTE_zML3NEZzWrhs-8">
          <mxGeometry relative="1" as="geometry" />
        </mxCell>
        <mxCell id="irAptTE_zML3NEZzWrhs-49" value="" style="image;html=1;image=img/lib/clip_art/networking/Switch_128x128.png" vertex="1" parent="1">
          <mxGeometry x="334" y="430" width="80" height="70" as="geometry" />
        </mxCell>
        <mxCell id="irAptTE_zML3NEZzWrhs-52" style="edgeStyle=orthogonalEdgeStyle;rounded=0;orthogonalLoop=1;jettySize=auto;html=1;exitX=0.5;exitY=1;exitDx=0;exitDy=0;entryX=0.392;entryY=-0.09;entryDx=0;entryDy=0;entryPerimeter=0;" edge="1" parent="1" source="irAptTE_zML3NEZzWrhs-49" target="irAptTE_zML3NEZzWrhs-15">
          <mxGeometry relative="1" as="geometry" />
        </mxCell>
        <mxCell id="irAptTE_zML3NEZzWrhs-53" style="edgeStyle=orthogonalEdgeStyle;rounded=0;orthogonalLoop=1;jettySize=auto;html=1;exitX=0.5;exitY=1;exitDx=0;exitDy=0;entryX=0.417;entryY=-0.016;entryDx=0;entryDy=0;entryPerimeter=0;" edge="1" parent="1" source="irAptTE_zML3NEZzWrhs-49" target="irAptTE_zML3NEZzWrhs-16">
          <mxGeometry relative="1" as="geometry" />
        </mxCell>
        <mxCell id="irAptTE_zML3NEZzWrhs-54" style="edgeStyle=orthogonalEdgeStyle;rounded=0;orthogonalLoop=1;jettySize=auto;html=1;exitX=0.5;exitY=1;exitDx=0;exitDy=0;entryX=0.429;entryY=-0.053;entryDx=0;entryDy=0;entryPerimeter=0;" edge="1" parent="1" source="irAptTE_zML3NEZzWrhs-49" target="irAptTE_zML3NEZzWrhs-17">
          <mxGeometry relative="1" as="geometry" />
        </mxCell>
        <mxCell id="irAptTE_zML3NEZzWrhs-62" style="edgeStyle=orthogonalEdgeStyle;rounded=0;orthogonalLoop=1;jettySize=auto;html=1;exitX=1;exitY=0.5;exitDx=0;exitDy=0;entryX=0.498;entryY=0.992;entryDx=0;entryDy=0;entryPerimeter=0;" edge="1" parent="1" source="irAptTE_zML3NEZzWrhs-27" target="irAptTE_zML3NEZzWrhs-38">
          <mxGeometry relative="1" as="geometry" />
        </mxCell>
        <mxCell id="irAptTE_zML3NEZzWrhs-63" style="edgeStyle=orthogonalEdgeStyle;rounded=0;orthogonalLoop=1;jettySize=auto;html=1;exitX=1;exitY=0.5;exitDx=0;exitDy=0;entryX=0.498;entryY=0.973;entryDx=0;entryDy=0;entryPerimeter=0;" edge="1" parent="1" source="irAptTE_zML3NEZzWrhs-27" target="irAptTE_zML3NEZzWrhs-40">
          <mxGeometry relative="1" as="geometry" />
        </mxCell>
        <mxCell id="irAptTE_zML3NEZzWrhs-64" style="edgeStyle=orthogonalEdgeStyle;rounded=0;orthogonalLoop=1;jettySize=auto;html=1;exitX=1;exitY=0.5;exitDx=0;exitDy=0;entryX=0.548;entryY=1.073;entryDx=0;entryDy=0;entryPerimeter=0;" edge="1" parent="1" source="irAptTE_zML3NEZzWrhs-27" target="irAptTE_zML3NEZzWrhs-41">
          <mxGeometry relative="1" as="geometry" />
        </mxCell>
        <mxCell id="irAptTE_zML3NEZzWrhs-68" style="edgeStyle=orthogonalEdgeStyle;rounded=0;orthogonalLoop=1;jettySize=auto;html=1;exitX=0.75;exitY=1;exitDx=0;exitDy=0;entryX=0.437;entryY=-0.037;entryDx=0;entryDy=0;entryPerimeter=0;" edge="1" parent="1" source="irAptTE_zML3NEZzWrhs-27" target="irAptTE_zML3NEZzWrhs-34">
          <mxGeometry relative="1" as="geometry" />
        </mxCell>
        <mxCell id="irAptTE_zML3NEZzWrhs-71" value="" style="verticalLabelPosition=bottom;sketch=0;aspect=fixed;html=1;verticalAlign=top;strokeColor=none;align=center;outlineConnect=0;shape=mxgraph.citrix.file_server;" vertex="1" parent="1">
          <mxGeometry x="900" y="313" width="71" height="97" as="geometry" />
        </mxCell>
        <mxCell id="irAptTE_zML3NEZzWrhs-78" style="edgeStyle=orthogonalEdgeStyle;rounded=0;orthogonalLoop=1;jettySize=auto;html=1;exitX=1;exitY=0.75;exitDx=0;exitDy=0;" edge="1" parent="1" source="irAptTE_zML3NEZzWrhs-72" target="irAptTE_zML3NEZzWrhs-71">
          <mxGeometry relative="1" as="geometry" />
        </mxCell>
        <mxCell id="irAptTE_zML3NEZzWrhs-88" style="edgeStyle=orthogonalEdgeStyle;rounded=0;orthogonalLoop=1;jettySize=auto;html=1;exitX=0.75;exitY=0;exitDx=0;exitDy=0;entryX=0.5;entryY=0;entryDx=0;entryDy=0;" edge="1" parent="1" source="irAptTE_zML3NEZzWrhs-72" target="irAptTE_zML3NEZzWrhs-87">
          <mxGeometry relative="1" as="geometry" />
        </mxCell>
        <mxCell id="irAptTE_zML3NEZzWrhs-89" style="edgeStyle=orthogonalEdgeStyle;rounded=0;orthogonalLoop=1;jettySize=auto;html=1;exitX=0.75;exitY=0;exitDx=0;exitDy=0;entryX=0.5;entryY=0;entryDx=0;entryDy=0;" edge="1" parent="1" source="irAptTE_zML3NEZzWrhs-72" target="irAptTE_zML3NEZzWrhs-86">
          <mxGeometry relative="1" as="geometry" />
        </mxCell>
        <mxCell id="irAptTE_zML3NEZzWrhs-90" style="edgeStyle=orthogonalEdgeStyle;rounded=0;orthogonalLoop=1;jettySize=auto;html=1;exitX=0.75;exitY=0;exitDx=0;exitDy=0;entryX=0.5;entryY=0;entryDx=0;entryDy=0;" edge="1" parent="1" source="irAptTE_zML3NEZzWrhs-93" target="irAptTE_zML3NEZzWrhs-85">
          <mxGeometry relative="1" as="geometry" />
        </mxCell>
        <mxCell id="irAptTE_zML3NEZzWrhs-72" value="" style="image;html=1;image=img/lib/clip_art/networking/Switch_128x128.png" vertex="1" parent="1">
          <mxGeometry x="740" y="295" width="80" height="70" as="geometry" />
        </mxCell>
        <mxCell id="irAptTE_zML3NEZzWrhs-74" value="" style="image;points=[];aspect=fixed;html=1;align=center;shadow=0;dashed=0;image=img/lib/allied_telesis/computer_and_terminals/Personal_Computer.svg;" vertex="1" parent="1">
          <mxGeometry x="1120" y="400" width="45.6" height="61.800000000000004" as="geometry" />
        </mxCell>
        <mxCell id="irAptTE_zML3NEZzWrhs-75" value="" style="image;points=[];aspect=fixed;html=1;align=center;shadow=0;dashed=0;image=img/lib/allied_telesis/computer_and_terminals/Personal_Computer.svg;" vertex="1" parent="1">
          <mxGeometry x="1030" y="400" width="45.6" height="61.800000000000004" as="geometry" />
        </mxCell>
        <mxCell id="irAptTE_zML3NEZzWrhs-76" value="" style="image;points=[];aspect=fixed;html=1;align=center;shadow=0;dashed=0;image=img/lib/allied_telesis/computer_and_terminals/Personal_Computer.svg;" vertex="1" parent="1">
          <mxGeometry x="1030" y="295" width="45.6" height="61.800000000000004" as="geometry" />
        </mxCell>
        <mxCell id="irAptTE_zML3NEZzWrhs-77" value="" style="image;points=[];aspect=fixed;html=1;align=center;shadow=0;dashed=0;image=img/lib/allied_telesis/computer_and_terminals/Personal_Computer.svg;" vertex="1" parent="1">
          <mxGeometry x="1120" y="299.1" width="45.6" height="61.800000000000004" as="geometry" />
        </mxCell>
        <mxCell id="irAptTE_zML3NEZzWrhs-79" style="edgeStyle=orthogonalEdgeStyle;rounded=0;orthogonalLoop=1;jettySize=auto;html=1;exitX=1;exitY=1;exitDx=0;exitDy=0;entryX=0.567;entryY=1.012;entryDx=0;entryDy=0;entryPerimeter=0;" edge="1" parent="1" source="irAptTE_zML3NEZzWrhs-72" target="irAptTE_zML3NEZzWrhs-75">
          <mxGeometry relative="1" as="geometry" />
        </mxCell>
        <mxCell id="irAptTE_zML3NEZzWrhs-80" style="edgeStyle=orthogonalEdgeStyle;rounded=0;orthogonalLoop=1;jettySize=auto;html=1;exitX=1;exitY=1;exitDx=0;exitDy=0;entryX=0.671;entryY=0.99;entryDx=0;entryDy=0;entryPerimeter=0;" edge="1" parent="1" source="irAptTE_zML3NEZzWrhs-72" target="irAptTE_zML3NEZzWrhs-74">
          <mxGeometry relative="1" as="geometry" />
        </mxCell>
        <mxCell id="irAptTE_zML3NEZzWrhs-81" style="edgeStyle=orthogonalEdgeStyle;rounded=0;orthogonalLoop=1;jettySize=auto;html=1;exitX=1;exitY=0;exitDx=0;exitDy=0;entryX=0.439;entryY=0.012;entryDx=0;entryDy=0;entryPerimeter=0;" edge="1" parent="1" source="irAptTE_zML3NEZzWrhs-72" target="irAptTE_zML3NEZzWrhs-76">
          <mxGeometry relative="1" as="geometry" />
        </mxCell>
        <mxCell id="irAptTE_zML3NEZzWrhs-82" style="edgeStyle=orthogonalEdgeStyle;rounded=0;orthogonalLoop=1;jettySize=auto;html=1;exitX=1;exitY=0;exitDx=0;exitDy=0;entryX=0.644;entryY=-0.016;entryDx=0;entryDy=0;entryPerimeter=0;" edge="1" parent="1" source="irAptTE_zML3NEZzWrhs-72" target="irAptTE_zML3NEZzWrhs-77">
          <mxGeometry relative="1" as="geometry" />
        </mxCell>
        <mxCell id="irAptTE_zML3NEZzWrhs-85" value="" style="image;html=1;image=img/lib/clip_art/computers/Netbook_128x128.png" vertex="1" parent="1">
          <mxGeometry x="1150" y="181.9" width="80" height="80" as="geometry" />
        </mxCell>
        <mxCell id="irAptTE_zML3NEZzWrhs-86" value="" style="image;html=1;image=img/lib/clip_art/computers/Netbook_128x128.png" vertex="1" parent="1">
          <mxGeometry x="1012.8" y="181.9" width="80" height="80" as="geometry" />
        </mxCell>
        <mxCell id="irAptTE_zML3NEZzWrhs-87" value="" style="image;html=1;image=img/lib/clip_art/computers/Netbook_128x128.png" vertex="1" parent="1">
          <mxGeometry x="891" y="181.9" width="80" height="80" as="geometry" />
        </mxCell>
        <mxCell id="irAptTE_zML3NEZzWrhs-92" value="" style="edgeStyle=orthogonalEdgeStyle;rounded=0;orthogonalLoop=1;jettySize=auto;html=1;exitX=0.5;exitY=1;exitDx=0;exitDy=0;entryX=0.5;entryY=0;entryDx=0;entryDy=0;" edge="1" parent="1" source="irAptTE_zML3NEZzWrhs-6" target="irAptTE_zML3NEZzWrhs-91">
          <mxGeometry relative="1" as="geometry">
            <mxPoint x="550" y="365" as="sourcePoint" />
            <mxPoint x="575" y="600" as="targetPoint" />
          </mxGeometry>
        </mxCell>
        <mxCell id="irAptTE_zML3NEZzWrhs-91" value="" style="image;html=1;image=img/lib/clip_art/networking/Switch_128x128.png" vertex="1" parent="1">
          <mxGeometry x="510" y="430" width="80" height="70" as="geometry" />
        </mxCell>
        <mxCell id="irAptTE_zML3NEZzWrhs-94" value="" style="edgeStyle=orthogonalEdgeStyle;rounded=0;orthogonalLoop=1;jettySize=auto;html=1;exitX=0.75;exitY=0;exitDx=0;exitDy=0;entryX=0.5;entryY=0;entryDx=0;entryDy=0;" edge="1" parent="1" source="irAptTE_zML3NEZzWrhs-72" target="irAptTE_zML3NEZzWrhs-93">
          <mxGeometry relative="1" as="geometry">
            <mxPoint x="800" y="295" as="sourcePoint" />
            <mxPoint x="1190" y="182" as="targetPoint" />
          </mxGeometry>
        </mxCell>
        <mxCell id="irAptTE_zML3NEZzWrhs-93" value="" style="image;html=1;image=img/lib/clip_art/computers/Printer_128x128.png" vertex="1" parent="1">
          <mxGeometry x="700" y="181.9" width="80" height="80" as="geometry" />
        </mxCell>
      </root>
    </mxGraphModel>
  </diagram>
</mxfile>
